<svg width="210" height="23" viewBox="0 0 210 23" fill="none" xmlns="http://www.w3.org/2000/svg">
<path d="M55.4678 22.1784V6.3004H60.2883V7.89727C61.1621 6.87286 62.6384 5.96899 64.6572 5.96899C67.9112 5.96899 69.9597 8.22868 69.9597 11.6935V22.1784H65.1392V13.0794C65.1392 11.4826 64.4762 10.3076 62.9096 10.3076C61.5841 10.3076 60.2883 11.2416 60.2883 13.1096V22.1784H55.4678Z" fill="#0463C4"/>
<path d="M76.6487 0.545654V22.1783H71.8281V0.545654H76.6487Z" fill="#0463C4"/>
<path d="M85.3643 22.1784V6.3004H90.1853V7.89727C91.059 6.87286 92.5353 5.96899 94.5536 5.96899C97.8077 5.96899 99.8567 8.22868 99.8567 11.6935V22.1784H95.0361V13.0794C95.0361 11.4826 94.3731 10.3076 92.8066 10.3076C91.4806 10.3076 90.1853 11.2416 90.1853 13.1096V22.1784H85.3643Z" fill="#0463C4"/>
<path d="M108.896 22.5098C104.105 22.5098 100.851 19.1655 100.851 14.2244C100.851 9.5242 104.226 5.96899 108.805 5.96899C113.626 5.96899 116.247 9.5242 116.247 14.0135V15.2789H105.491C105.823 17.4482 107.118 18.6835 108.956 18.6835C110.463 18.6835 111.637 17.9604 112.09 16.5744L116.127 17.87C114.952 20.913 112.059 22.5098 108.896 22.5098ZM108.745 9.705C107.269 9.705 106.124 10.5788 105.642 12.3262H111.487C111.457 10.9102 110.523 9.705 108.745 9.705Z" fill="#0463C4"/>
<path fill-rule="evenodd" clip-rule="evenodd" d="M83.4177 22.1783V6.30029H78.5972V22.1783H83.4177Z" fill="#0463C4"/>
<path d="M123.203 0.836914V12.2859L118.382 16.7752L122.912 12.5571L121.516 11.352L123.203 12.2859V15.4495V17.8598V22.4696H118.382V0.836914H123.203Z" fill="#EC3534"/>
<path d="M135.469 22.4696V0.836914H140.29V8.18839C141.163 7.16402 142.64 6.26015 144.658 6.26015C147.912 6.26015 149.961 8.51984 149.961 11.9847V22.4696H145.14V13.3706C145.14 11.7738 144.478 10.5987 142.911 10.5987C141.585 10.5987 140.29 11.5327 140.29 13.4008V22.4696H135.469Z" fill="#EC3534"/>
<path d="M156.319 22.7707C153.125 22.7707 150.835 20.8425 150.835 18.0405C150.835 14.7564 153.607 13.4307 156.952 12.9487L160.507 12.3461V12.0749C160.507 10.8999 159.874 10.1467 158.307 10.1467C156.921 10.1467 156.198 10.7492 155.897 12.0448L151.287 11.3518C151.98 8.5498 154.481 6.26001 158.518 6.26001C162.676 6.26001 165.237 8.15814 165.237 11.864V17.9802C165.237 18.7937 165.538 19.0347 166.472 18.9142V22.4694C163.7 22.9214 161.832 22.4092 161.019 21.0534C159.965 22.138 158.398 22.7707 156.319 22.7707ZM160.507 16.7751V15.4494L157.735 15.9615C156.47 16.1725 155.535 16.5943 155.535 17.709C155.535 18.7033 156.289 19.2456 157.434 19.2456C159.03 19.2456 160.507 18.402 160.507 16.7751Z" fill="#EC3534"/>
<path d="M176.524 22.801C174.625 22.801 173.119 22.0176 172.215 20.9029V22.4696H167.395V0.836914H172.215V8.18839C173.119 7.04352 174.625 6.26015 176.524 6.26015C180.892 6.26015 183.363 9.99616 183.363 14.5456C183.363 19.065 180.892 22.801 176.524 22.801ZM172.185 14.1238V14.9674C172.185 17.3477 173.481 18.7034 175.288 18.7034C177.397 18.7034 178.512 16.9861 178.512 14.5456C178.512 12.1052 177.397 10.3878 175.288 10.3878C173.481 10.3878 172.185 11.7135 172.185 14.1238Z" fill="#EC3534"/>
<path d="M188.951 22.7707C185.757 22.7707 183.467 20.8425 183.467 18.0405C183.467 14.7564 186.239 13.4307 189.583 12.9487L193.138 12.3461V12.0749C193.138 10.8999 192.506 10.1467 190.939 10.1467C189.553 10.1467 188.83 10.7492 188.529 12.0448L183.919 11.3518C184.612 8.5498 187.113 6.26001 191.15 6.26001C195.308 6.26001 197.869 8.15814 197.869 11.864V17.9802C197.869 18.7937 198.17 19.0347 199.104 18.9142V22.4694C196.332 22.9214 194.464 22.4092 193.651 21.0534C192.596 22.138 191.029 22.7707 188.951 22.7707ZM193.138 16.7751V15.4494L190.366 15.9615C189.101 16.1725 188.167 16.5943 188.167 17.709C188.167 18.7033 188.92 19.2456 190.065 19.2456C191.662 19.2456 193.138 18.402 193.138 16.7751Z" fill="#EC3534"/>
<path d="M210 6.56152V11.2014C209.488 11.111 209.127 11.0808 208.585 11.0808C206.505 11.0808 204.849 12.3764 204.849 14.6662V22.4696H200.028V6.59162H204.849V8.67055C205.572 7.40513 207.108 6.50122 208.946 6.50122C209.398 6.50122 209.699 6.53137 210 6.56152Z" fill="#EC3534"/>
<path d="M80.9069 5.02151C82.2935 5.02151 83.4176 3.89741 83.4176 2.51076C83.4176 1.1241 82.2935 0 80.9069 0C79.5202 0 78.3961 1.1241 78.3961 2.51076C78.3961 3.89741 79.5202 5.02151 80.9069 5.02151Z" fill="#0056AE"/>
<path fill-rule="evenodd" clip-rule="evenodd" d="M38.0469 14.4424C38.0469 9.95568 41.6839 6.3186 46.1707 6.3186C50.6573 6.3186 54.2945 9.95568 54.2945 14.4424C54.2945 18.9291 50.6573 22.5662 46.1707 22.5662C41.6839 22.5662 38.0469 18.9291 38.0469 14.4424ZM46.1707 18.053C48.1647 18.053 49.7813 16.4365 49.7813 14.4424C49.7813 12.4483 48.1647 10.8318 46.1707 10.8318C44.1766 10.8318 42.5601 12.4483 42.5601 14.4424C42.5601 16.4365 44.1766 18.053 46.1707 18.053Z" fill="#0463C3"/>
<path d="M132.929 6.3186H128.287C127.879 6.3186 127.499 6.53032 127.277 6.88131L123.405 12.7477C122.718 13.8349 122.726 15.2349 123.426 16.3136L127.867 22.0161C128.09 22.3595 128.466 22.5662 128.869 22.5662H133.551C133.824 22.5662 134.099 22.1256 133.953 21.8892L128.869 15.1194C128.621 14.7181 128.563 14.4356 128.811 14.0333L133.222 6.86222C133.367 6.62586 133.202 6.3186 132.929 6.3186Z" fill="#EC3534"/>
<path d="M11.2968 0C5.05761 0 0 5.06406 0 11.3112C0 17.5583 5.05761 22.6224 11.2968 22.6224C17.536 22.6224 22.5936 17.5583 22.5936 11.3112C22.5936 5.06406 17.536 0 11.2968 0ZM11.2968 15.5435C8.96227 15.5435 7.06983 13.6487 7.06983 11.3112C7.06983 8.97365 8.96227 7.07881 11.2968 7.07881C13.6314 7.07881 15.5238 8.97365 15.5238 11.3112C15.5238 13.6487 13.6314 15.5435 11.2968 15.5435Z" fill="#0E5DAE"/>
<path d="M33.4052 0.0495605H22.3472C21.7686 0.0495605 21.2304 0.343058 20.9157 0.829667L16.067 8.33653C15.0936 9.84377 15.1054 11.7846 16.0962 13.28L21.7526 21.8109C22.0687 22.2871 22.6014 22.5736 23.173 22.5736H33.0084C33.3955 22.5736 33.6301 22.1463 33.4233 21.8186L27.5706 12.5675C27.219 12.0112 27.2176 11.3022 27.5685 10.7445L33.8216 0.803174C34.027 0.475514 33.7924 0.0495605 33.4052 0.0495605Z" fill="#EC3534"/>
</svg>
