<svg width="74" height="74" viewBox="0 0 74 74" fill="none" xmlns="http://www.w3.org/2000/svg">
<circle cx="37" cy="37" r="37" fill="#007419"/>
<path d="M30.0514 23.124C20.0457 28.6935 23.0711 39.8381 25.5237 44.2065C24.7691 46.4857 21.5912 51.808 22.0439 52.2638C22.6099 52.8336 26.2506 51.4269 28.9382 50.5402C32.4212 49.3912 31.8955 53.0196 42.2371 50.5402C42.2371 50.5402 51.345 47.6676 52.6901 38.5086C54.2361 27.9819 42.727 16.0683 30.0514 23.124Z" stroke="white" stroke-width="3"/>
<mask id="mask0_1_194" style="mask-type:alpha" maskUnits="userSpaceOnUse" x="25" y="24" width="25" height="25">
<rect x="27.2592" y="28.9514" width="18.3568" height="18.3568" transform="rotate(-7.51413 27.2592 28.9514)" fill="#D9D9D9" stroke="white" stroke-width="3"/>
</mask>
<g mask="url(#mask0_1_194)">
<path d="M44.534 39.9601L44.8606 42.4367C43.5257 42.5447 42.1619 42.4149 40.7611 42.0348L40.4409 41.944C40.424 41.939 40.4073 41.9331 40.3905 41.928L42.0329 39.7877L44.534 39.9601ZM32.7379 30.9212L33.5121 33.3033L31.9094 35.4158L31.8919 35.3875C31.0649 34.0426 30.5294 32.6642 30.2691 31.2468L32.7379 30.9212Z" fill="#1C1B1F" stroke="white" stroke-width="3"/>
</g>
</svg>
