<svg width="50" height="23" viewBox="0 0 50 23" fill="none" xmlns="http://www.w3.org/2000/svg">
<g opacity="0.6">
<path d="M30.4097 6.31812V17.3034" stroke="black" stroke-width="1.6"/>
<path d="M26.8947 9.83374V17.7432" stroke="black" stroke-width="1.6"/>
<path d="M8 7.63623V9.39388M8 16.4245V9.39388M8 9.39388L12.3941 14.2274L15.4699 7.63623V16.4245" stroke="black" stroke-width="1.6"/>
<ellipse cx="27.3336" cy="5.87882" rx="0.878813" ry="0.878825" fill="black"/>
<path d="M23.0816 13.7881C23.4221 12.2474 23.3105 10.4109 21.8494 9.92383C19.7403 9.22077 18.546 12.4698 18.546 14.6669C18.9854 16.8639 21.41 16.0756 21.8494 16.0756C22.2412 16.0756 22.8077 15.0276 23.0816 13.7881ZM23.0816 13.7881C23.4738 15.0761 23.9947 16.6158 24.6977 15.9851" stroke="black" stroke-width="1.6"/>
</g>
<path d="M50 11.5407L37.8611 21.6085C37.3495 22.0451 36.6872 22.3861 35.8742 22.6317C35.0594 22.8772 34.1868 23 33.2567 23H5.35108C3.81627 23 2.14071 23.004 1.04681 22.3634C-0.0452313 21.7217 0.19545 20.7172 0.19545 19.8169V10.9041L0.000264692 2.46162C0.000264692 1.56125 -0.0448862 1.04043 1.04715 0.399804C2.14105 -0.241914 3.81627 0.0814919 5.35108 0.0814919H33.2567C34.1868 0.0814919 35.0594 0.204269 35.8742 0.449825C36.6872 0.69538 37.3495 1.03643 37.8611 1.47297L50 11.5407ZM48.2973 11.5407L35.8742 1.7317H1.77275V11.5407V21.6085H35.8742L48.2973 11.5407Z" fill="black"/>
</svg>
