<svg width="79" height="24" viewBox="0 0 79 24" fill="none" xmlns="http://www.w3.org/2000/svg">
<rect width="79" height="24" rx="5.08236" fill="#424242"/>
<path d="M65.0236 10.6587L65.5 14.4705M65.8706 17.4352L65.5 14.4705M65.5 14.4705L68.4118 14.047L71.3765 17.4352L73.9177 8.9646M56.9765 13.6234C57.4 12.494 58.5012 10.2352 59.5177 10.2352C60.7883 10.2352 61.6353 13.6234 61.6353 14.4705C61.6353 15.3175 60.7883 17.4352 59.5177 17.4352C58.2471 17.4352 56.9765 15.7411 56.9765 13.6234Z" stroke="white" stroke-width="1.69412"/>
<path d="M29.0235 9.81177V13.2M29.0235 17.8588V13.2M29.0235 13.2C30.2941 12.2118 33.0894 10.6588 34.1059 12.3529C35.1223 14.0471 35.0941 15.8824 34.9529 16.5882" stroke="white" stroke-width="1.69412"/>
<path d="M44.2706 8.54115L44.4824 12.9882M44.6942 17.8588L44.4824 12.9882M44.4824 12.9882L52.1647 16.0938M54.4353 17.0117L52.1647 16.0938M52.1647 16.0938V18.7059M52.1647 16.0938V7.69409" stroke="white" stroke-width="1.69412"/>
<path d="M25.2117 10.6587V18.7058" stroke="white" stroke-width="1.69412"/>
<circle cx="25.6353" cy="6.84706" r="0.84706" fill="white"/>
<path d="M8.69412 8.96468L12.0824 8.11762M15.4706 7.69409L12.0824 8.11762M12.0824 8.11762L12.5059 17.0117C11.0941 17.4353 8.01647 17.8588 7 16.1647M20.9765 16.1647C21.8235 14.8941 21.993 12.0141 20.9765 10.6588C19.7059 8.96468 16.7412 11.9294 16.7412 14.047C16.7412 16.1647 18.0118 17.4353 20.9765 16.1647Z" stroke="white" stroke-width="1.69412"/>
</svg>
