<svg width="213" height="56" viewBox="0 0 213 56" fill="none" xmlns="http://www.w3.org/2000/svg">
<path d="M91.4807 14.1265V18.9839H76.9055V25.153H89.0516C92.1447 25.2987 93.7643 26.9015 93.9099 29.9619V35.961C93.7643 39.0697 92.1285 40.7132 89.0028 40.8913H72.0469V36.0336H89.0516V30.0103H76.9055C73.7961 29.7838 72.1766 28.1566 72.0469 25.1287V18.9597C72.1766 15.8833 73.7961 14.2722 76.9055 14.1265H91.4807Z" fill="#4B4B4B"/>
<path d="M116.27 28.7476V18.9839H104.124V28.7476H116.27ZM104.124 33.6049V40.8913H99.2656V14.1265H116.222C119.347 14.2722 120.983 15.9075 121.129 19.0325V28.6988C120.983 31.7754 119.363 33.4106 116.27 33.6049L121.177 40.8913H115.833L110.926 33.6049H104.124Z" fill="#4B4B4B"/>
<path d="M126.484 14.2236H131.343V40.8913H126.484V14.2236Z" fill="#4B4B4B"/>
<path d="M136.699 14.175H141.558V26.3188H153.704V14.175H158.562V26.3673C158.449 29.4277 156.821 31.0307 153.679 31.1762H150.06V40.8913H145.226V31.1762H141.606C138.432 31.0307 136.796 29.4194 136.699 26.3431V14.175Z" fill="#4B4B4B"/>
<path d="M180.923 36.0336V18.9839H168.777V36.0336H180.923ZM163.918 18.9597C164.048 15.8509 165.667 14.2398 168.777 14.1265H180.898C183.975 14.2398 185.603 15.8509 185.781 18.9597V36.0336C185.7 39.1749 184.08 40.7941 180.923 40.8913H168.777C165.602 40.7941 163.983 39.1749 163.918 36.0336V18.9597Z" fill="#4B4B4B"/>
<path d="M191.137 19.0082C191.25 15.8671 192.869 14.2398 195.995 14.1265H208.19C211.315 14.2398 212.919 15.8671 213 19.0082V21.4127H208.141V18.9839H195.995V36.0336H208.141V30.0103H202.117V25.153H213V36.0336C212.838 39.094 211.234 40.7132 208.19 40.8913H195.995C192.902 40.7294 191.282 39.1182 191.137 36.0581V19.0082Z" fill="#4B4B4B"/>
<path d="M54.1126 34.6451C50.1786 49.3239 35.0873 58.0351 20.4054 54.1019C5.7235 50.1688 -2.98939 35.0805 0.944609 20.4014C4.87864 5.72238 19.9698 -2.9888 34.6519 0.944423C49.3335 4.87768 58.0465 19.9659 54.1126 34.6451Z" fill="#4B4B4B"/>
<path fill-rule="evenodd" clip-rule="evenodd" d="M32.2079 29.5326C33.7422 27.5592 34.8132 25.1271 35.4208 22.2366L39.9527 31.9497C37.0612 37.3737 32.5104 42.702 26.2995 47.9347L18.8867 44.8441C22.2423 42.5411 25.7861 38.8182 29.5181 33.6757L22.4321 32.2143C20.6566 34.8075 18.207 37.2978 15.0835 39.6854L7.80253 36.7742C10.7854 34.7733 13.2349 32.5237 15.151 30.0251C11.3357 28.6592 8.86845 26.777 7.7493 24.3781C6.65654 21.9671 6.58928 19.6555 7.54751 17.4434C8.5321 15.219 10.0922 13.6088 12.2277 12.6128C14.3897 11.6046 16.8256 11.5277 19.5356 12.3821C22.2332 13.2102 24.3956 15.0583 26.0226 17.9263C27.6494 20.7943 27.3755 24.1636 25.2011 28.0344L32.2079 29.5326ZM15.4395 23.7284C15.9806 24.8882 16.8302 25.7116 17.9883 26.1986C19.2664 24.1903 20.0146 22.2848 20.2328 20.482C20.4774 18.6668 20.0918 17.5308 19.076 17.0737C18.0866 16.6044 17.0979 17.3062 16.1099 19.1792C15.1095 21.0258 14.8861 22.5422 15.4395 23.7284Z" fill="white"/>
<path d="M29.6933 17.4622L37.2527 13.9368L48.15 37.2943L40.5906 40.8196L29.6933 17.4622ZM25.7305 8.96853L33.2899 5.44312L36.262 11.8133L28.7026 15.3388L25.7305 8.96853Z" fill="white"/>
</svg>
