<svg width="59" height="37" viewBox="0 0 59 37" fill="none" xmlns="http://www.w3.org/2000/svg">
<path d="M39.9995 11.7647V26.4706" stroke="black" stroke-width="2.35294"/>
<path d="M35.2936 16.4706V27.0588" stroke="black" stroke-width="2.35294"/>
<path d="M9.99951 13.5294V15.8824M9.99951 25.2941V15.8824M9.99951 15.8824L15.8819 22.353L19.9995 13.5294V25.2941" stroke="black" stroke-width="2.35294"/>
<circle cx="35.8819" cy="11.1765" r="1.17647" fill="black"/>
<path d="M30.189 21.7647C30.6448 19.7022 30.4954 17.2437 28.5395 16.5917C25.716 15.6505 24.1172 20 24.1172 22.9412C24.7054 25.8824 27.9513 24.827 28.5395 24.827C29.064 24.827 29.8223 23.424 30.189 21.7647ZM30.189 21.7647C30.7141 23.4891 31.4113 25.5502 32.3525 24.7059" stroke="black" stroke-width="2.35294"/>
<path d="M58.9993 19L44.741 34.8143C44.1401 35.5 43.3621 36.0357 42.4072 36.4214C41.4501 36.8072 40.4253 37 39.3327 37H6.55489C4.75211 37 2.784 37.0063 1.49911 36C0.216403 34.992 0.499106 33.4143 0.499106 32V18L0.269842 4.73867C0.269842 3.32439 0.216808 2.5063 1.49951 1.50002C2.7844 0.492015 4.75211 1.00002 6.55489 1.00002H39.3327C40.4253 1.00002 41.4501 1.19287 42.4072 1.57859C43.3621 1.9643 44.1401 2.50002 44.741 3.18573L58.9993 19ZM56.9993 19L42.4072 3.59213H2.3518V19V34.8143H42.4072L56.9993 19Z" fill="black"/>
</svg>
