<svg width="213" height="56" viewBox="0 0 213 56" fill="none" xmlns="http://www.w3.org/2000/svg">
<path d="M91.4807 14.1263V18.9838H76.9055V25.1529H89.0516C92.1447 25.2986 93.7643 26.9014 93.9099 29.9618V35.9608C93.7643 39.0696 92.1285 40.7131 89.0028 40.8911H72.0469V36.0335H89.0516V30.0102H76.9055C73.7961 29.7837 72.1766 28.1565 72.0469 25.1285V18.9595C72.1766 15.8832 73.7961 14.2721 76.9055 14.1263H91.4807Z" fill="#88181D"/>
<path d="M116.27 28.7474V18.9838H104.124V28.7474H116.27ZM104.124 33.6048V40.8911H99.2656V14.1263H116.222C119.347 14.2721 120.983 15.9074 121.129 19.0324V28.6987C120.983 31.7753 119.363 33.4105 116.27 33.6048L121.177 40.8911H115.833L110.926 33.6048H104.124Z" fill="#88181D"/>
<path d="M126.484 14.2236H131.343V40.8912H126.484V14.2236Z" fill="#88181D"/>
<path d="M136.699 14.175H141.558V26.3187H153.704V14.175H158.562V26.3673C158.449 29.4276 156.821 31.0306 153.679 31.1762H150.06V40.8912H145.226V31.1762H141.606C138.432 31.0306 136.796 29.4193 136.699 26.343V14.175Z" fill="#88181D"/>
<path d="M180.923 36.0335V18.9838H168.777V36.0335H180.923ZM163.918 18.9595C164.048 15.8508 165.667 14.2397 168.777 14.1263H180.898C183.975 14.2397 185.603 15.8508 185.781 18.9595V36.0335C185.7 39.1747 184.08 40.794 180.923 40.8911H168.777C165.602 40.794 163.983 39.1747 163.918 36.0335V18.9595Z" fill="#88181D"/>
<path d="M191.137 19.0081C191.25 15.8669 192.869 14.2397 195.995 14.1263H208.19C211.315 14.2397 212.919 15.8669 213 19.0081V21.4126H208.141V18.9838H195.995V36.0335H208.141V30.0102H202.117V25.1529H213V36.0335C212.838 39.0938 211.234 40.7131 208.19 40.8911H195.995C192.902 40.7293 191.282 39.118 191.137 36.058V19.0081Z" fill="#88181D"/>
<path d="M54.1126 34.6451C50.1786 49.3239 35.0873 58.0351 20.4054 54.1019C5.7235 50.1688 -2.98939 35.0805 0.944609 20.4014C4.87864 5.72238 19.9698 -2.9888 34.6519 0.944423C49.3335 4.87768 58.0465 19.9659 54.1126 34.6451Z" fill="#88181D"/>
<path fill-rule="evenodd" clip-rule="evenodd" d="M32.2079 29.5327C33.7422 27.5593 34.8132 25.1272 35.4208 22.2367L39.9527 31.9498C37.0612 37.3738 32.5104 42.702 26.2995 47.9347L18.8867 44.8442C22.2423 42.5412 25.7861 38.8183 29.5181 33.6758L22.4321 32.2144C20.6566 34.8075 18.207 37.2979 15.0835 39.6854L7.80253 36.7743C10.7854 34.7734 13.2349 32.5238 15.151 30.0251C11.3357 28.6592 8.86845 26.7771 7.7493 24.3782C6.65654 21.9671 6.58928 19.6556 7.54751 17.4435C8.5321 15.219 10.0922 13.6088 12.2277 12.6129C14.3897 11.6046 16.8256 11.5277 19.5356 12.3822C22.2332 13.2103 24.3956 15.0583 26.0226 17.9263C27.6494 20.7943 27.3755 24.1637 25.2011 28.0345L32.2079 29.5327ZM15.4395 23.7285C15.9806 24.8883 16.8302 25.7117 17.9883 26.1986C19.2664 24.1904 20.0146 22.2849 20.2328 20.482C20.4774 18.6669 20.0918 17.5308 19.076 17.0738C18.0866 16.6044 17.0979 17.3063 16.1099 19.1792C15.1095 21.0259 14.8861 22.5423 15.4395 23.7285Z" fill="white"/>
<path d="M29.6933 17.4621L37.2527 13.9367L48.15 37.2942L40.5906 40.8195L29.6933 17.4621ZM25.7305 8.96847L33.2899 5.44305L36.262 11.8133L28.7026 15.3387L25.7305 8.96847Z" fill="white"/>
</svg>
